HIERARCHY
ROOT joint_Root
{
	OFFSET 0.0 0.0 0.0
	CHANNELS 6 Xposition Yposition Zposition Zrotation Xrotation Yrotation 
	JOINT Hips
	{
		OFFSET -0.726466 93.3139 -2.00062
		CHANNELS 6 Xposition Yposition Zposition Zrotation Xrotation Yrotation 
		JOINT Spine
		{
			OFFSET 15.7357 0.0 0.0
			CHANNELS 6 Xposition Yposition Zposition Zrotation Xrotation Yrotation 
			JOINT Chest
			{
				OFFSET 8.98455 -0.406207 0.0
				CHANNELS 6 Xposition Yposition Zposition Zrotation Xrotation Yrotation 
				JOINT Neck
				{
					OFFSET 16.3773 0.0 0.0
					CHANNELS 6 Xposition Yposition Zposition Zrotation Xrotation Yrotation 
					JOINT Head
					{
						OFFSET 6.45672 0.0 0.0
						CHANNELS 6 Xposition Yposition Zposition Zrotation Xrotation Yrotation 
						End Site
						{
							OFFSET 0.0 0.0 0.0
						}
					}
				}
				JOINT Shoulder_L
				{
					OFFSET 12.9942 -0.242716 4.98039
					CHANNELS 6 Xposition Yposition Zposition Zrotation Xrotation Yrotation 
					JOINT UpperArm_L
					{
						OFFSET 5.34809 0.0 0.0
						CHANNELS 6 Xposition Yposition Zposition Zrotation Xrotation Yrotation 
						JOINT LowerArm_L
						{
							OFFSET 24.3286 1.87007e-05 0.0
							CHANNELS 6 Xposition Yposition Zposition Zrotation Xrotation Yrotation 
							JOINT Hand_L
							{
								OFFSET 22.2916 0.0 0.0
								CHANNELS 6 Xposition Yposition Zposition Zrotation Xrotation Yrotation 
								End Site
								{
									OFFSET 0.0 0.0 0.0
								}
							}
						}
					}
				}
				JOINT Shoulder_R
				{
					OFFSET 12.9945 -0.242716 -4.98039
					CHANNELS 6 Xposition Yposition Zposition Zrotation Xrotation Yrotation 
					JOINT UpperArm_R
					{
						OFFSET -5.34813 0.0 0.0
						CHANNELS 6 Xposition Yposition Zposition Zrotation Xrotation Yrotation 
						JOINT LowerArm_R
						{
							OFFSET -24.3289 0.000322201 0.0
							CHANNELS 6 Xposition Yposition Zposition Zrotation Xrotation Yrotation 
							JOINT Hand_R
							{
								OFFSET -22.2915 -0.000108084 0.0
								CHANNELS 6 Xposition Yposition Zposition Zrotation Xrotation Yrotation 
								End Site
								{
									OFFSET 0.0 0.0 0.0
								}
							}
						}
					}
				}
			}
		}
		JOINT UpperLeg_L
		{
			OFFSET -2.19248 -6.46944 0.0
			CHANNELS 6 Xposition Yposition Zposition Zrotation Xrotation Yrotation 
			JOINT LowerLeg_L
			{
				OFFSET 39.0811 0.0 -1.23785e-05
				CHANNELS 6 Xposition Yposition Zposition Zrotation Xrotation Yrotation 
				JOINT Foot_L
				{
					OFFSET 40.9854 0.0 -1.26872e-05
					CHANNELS 6 Xposition Yposition Zposition Zrotation Xrotation Yrotation 
					JOINT Toes_L
					{
						OFFSET 11.7543 0.0 0.0
						CHANNELS 6 Xposition Yposition Zposition Zrotation Xrotation Yrotation 
						End Site
						{
							OFFSET 0.0 0.0 0.0
						}
					}
				}
			}
		}
		JOINT UpperLeg_R
		{
			OFFSET -2.19251 6.46944 0.0
			CHANNELS 6 Xposition Yposition Zposition Zrotation Xrotation Yrotation 
			JOINT LowerLeg_R
			{
				OFFSET -39.0811 -0.00228153 -0.0401928
				CHANNELS 6 Xposition Yposition Zposition Zrotation Xrotation Yrotation 
				JOINT Foot_R
				{
					OFFSET -40.9854 0.0 0.0
					CHANNELS 6 Xposition Yposition Zposition Zrotation Xrotation Yrotation 
					JOINT Toes_R
					{
						OFFSET -11.7543 0.0 0.0
						CHANNELS 6 Xposition Yposition Zposition Zrotation Xrotation Yrotation 
						End Site
						{
							OFFSET 0.0 0.0 0.0
						}
					}
				}
			}
		}
	}
}
MOTION
Frames:	7
Frame Time:	0.0333333
0.000000 0.000000 0.000000 0.000000 0.000000 -0.000000 1.857290 87.975900 -48.422100 88.205700 6.847340 3.340920 15.735700 0.000005 -0.000001 62.258800 79.105400 -61.363000 8.984550 -0.406207 -0.000000 11.729600 -10.027900 2.827380 16.377300 -0.000001 -0.000001 6.325020 -2.728680 -0.905345 6.456720 -0.000001 -0.000000 1.588340 3.971110 0.560973 12.994200 -0.242716 4.980390 -88.437400 -4.916130 -72.342900 5.348090 -0.000007 -0.000001 -36.124900 18.017000 -40.147100 24.328600 0.000019 0.000005 4.108160 2.811130 -55.672400 22.291600 -0.000001 0.000005 9.203850 5.585340 -10.502300 12.994500 -0.242716 -4.980390 88.961000 1.937270 -61.787100 -5.348130 -0.000001 -0.000004 -64.740700 25.326600 4.665820 -24.328900 0.000322 -0.000009 5.556580 8.682190 -32.805900 -22.291500 -0.000108 -0.000004 1.739070 5.563320 -9.350800 -2.192480 -6.469440 -0.000000 -174.472000 -6.156030 8.458710 39.081100 -0.000007 -0.000012 0.006990 -0.013814 26.839300 40.985400 -0.000006 -0.000013 1.635730 -1.378890 -81.811900 11.754300 -0.000000 0.000003 -1.567720 -2.039190 -15.750800 -2.192510 6.469440 -0.000001 -173.605000 27.284200 152.383000 -39.081100 -0.002282 -0.040193 0.004166 -0.006249 7.498090 -40.985400 0.000008 0.000006 -4.962000 0.728914 -56.936900 -11.754300 -0.000006 -0.000006 -0.022590 -0.181234 -23.982900
0.000000 0.000000 0.000000 0.000000 0.000000 -0.000000 1.030600 87.022500 -44.026500 88.306100 8.245370 3.152260 15.735700 0.000005 -0.000001 60.085600 78.843500 -59.003900 8.984550 -0.406207 -0.000000 11.839100 -10.996400 3.311400 16.377300 -0.000001 -0.000001 6.370680 -2.811830 -1.036880 6.456720 -0.000001 -0.000000 1.336020 4.211640 0.363363 12.994200 -0.242716 4.980390 -88.440900 -4.900510 -72.326600 5.348090 -0.000007 -0.000001 -35.457700 17.155900 -40.450200 24.328600 0.000019 0.000005 4.294700 2.736100 -57.557200 22.291600 -0.000001 0.000005 9.234420 5.585110 -10.489200 12.994500 -0.242716 -4.980390 88.953100 1.915130 -61.328700 -5.348130 -0.000001 -0.000004 -64.796500 25.117600 5.948270 -24.328900 0.000322 -0.000009 5.778370 8.999600 -32.904200 -22.291500 -0.000108 -0.000004 1.738330 5.565690 -9.469450 -2.192480 -6.469440 -0.000000 -173.047000 -4.945310 10.379100 39.081100 -0.000007 -0.000012 -0.015266 0.028952 27.802400 40.985400 -0.000006 -0.000013 0.365837 -0.100304 -81.223200 11.754300 -0.000000 0.000003 -2.789520 -3.501700 -18.558700 -2.192510 6.469440 -0.000001 -172.732000 27.349400 149.954000 -39.081100 -0.002282 -0.040193 0.002802 0.002743 11.042400 -40.985400 0.000008 0.000006 -3.798280 -2.293370 -57.974400 -11.754300 -0.000006 -0.000006 -0.022501 -0.180769 -23.963700
0.000000 0.000000 0.000000 0.000000 0.000000 -0.000000 -0.047019 86.208900 -39.364200 87.547800 9.941860 2.487070 15.735700 0.000005 -0.000001 57.906000 78.852700 -56.304400 8.984550 -0.406207 -0.000000 11.463700 -11.701200 4.389100 16.377300 -0.000001 -0.000001 6.850000 -3.193170 -1.159410 6.456720 -0.000001 -0.000000 1.032770 4.222550 0.380243 12.994200 -0.242716 4.980390 -88.569200 -4.617260 -72.762200 5.348090 -0.000007 -0.000001 -35.068000 17.143900 -39.929900 24.328600 0.000019 0.000005 4.366000 2.612580 -59.161700 22.291600 -0.000001 0.000005 9.468580 5.586120 -10.544700 12.994500 -0.242716 -4.980390 88.870300 2.034460 -60.948400 -5.348130 -0.000001 -0.000004 -64.830200 24.534500 7.153420 -24.328900 0.000322 -0.000009 6.044170 9.406800 -32.941200 -22.291500 -0.000108 -0.000004 1.786000 5.567120 -9.541750 -2.192480 -6.469440 -0.000000 -170.291000 -3.942110 11.234400 39.081100 -0.000007 -0.000012 -0.062956 0.112577 29.215300 40.985400 -0.000006 -0.000013 -0.885120 1.923800 -78.993600 11.754300 -0.000000 0.000003 -2.818280 -3.277010 -23.076500 -2.192510 6.469440 -0.000001 -170.442000 26.580300 145.629000 -39.081100 -0.002282 -0.040193 0.010934 -0.021929 19.142100 -40.985400 0.000008 0.000006 6.161140 -4.639660 -57.140600 -11.754300 -0.000006 -0.000006 -0.028535 -0.210669 -25.200300
0.000000 0.000000 0.000000 0.000000 0.000000 -0.000000 -1.261290 85.555200 -34.465300 86.287300 11.382500 1.422840 15.735700 0.000005 -0.000001 56.363800 79.250800 -54.058500 8.984550 -0.406207 -0.000000 10.540300 -11.773300 5.710210 16.377300 -0.000001 -0.000001 7.280170 -3.815870 -1.259310 6.456720 -0.000001 -0.000000 0.971920 3.998830 0.476895 12.994200 -0.242716 4.980390 -88.805000 -3.996220 -73.336100 5.348090 -0.000007 -0.000001 -34.710500 18.269700 -39.049400 24.328600 0.000019 0.000005 4.798870 2.747630 -60.272900 22.291600 -0.000001 0.000005 9.512590 5.586330 -10.556700 12.994500 -0.242716 -4.980390 88.679800 2.355630 -60.720700 -5.348130 -0.000001 -0.000004 -64.821700 22.924900 8.645080 -24.328900 0.000322 -0.000009 6.128930 9.503970 -33.041800 -22.291500 -0.000108 -0.000004 1.778710 5.568090 -9.590740 -2.192480 -6.469440 -0.000000 -166.847000 -3.232540 11.258200 39.081100 -0.000007 -0.000012 -0.064057 0.105335 31.305000 40.985400 -0.000006 -0.000013 -1.865270 3.872250 -76.570100 11.754300 -0.000000 0.000003 -0.024291 -0.190006 -24.348900 -2.192510 6.469440 -0.000001 -169.727000 24.600200 142.037000 -39.081100 -0.002282 -0.040193 0.077493 -0.149046 26.460600 -40.985400 0.000008 0.000006 8.246180 -7.078290 -48.685800 -11.754300 -0.000006 -0.000006 -0.033210 -0.231815 -26.078200
0.000000 0.000000 0.000000 0.000000 0.000000 -0.000000 -2.366200 85.001400 -28.993600 85.051700 11.936600 2.246100 15.735700 0.000005 -0.000001 57.007700 79.161100 -54.074400 8.984550 -0.406207 -0.000000 10.889400 -11.641300 6.992940 16.377300 -0.000001 -0.000001 7.061750 -3.806890 -1.540480 6.456720 -0.000001 -0.000000 0.874657 3.846290 0.264050 12.994200 -0.242716 4.980390 -88.920100 -3.580890 -73.205900 5.348090 -0.000007 -0.000001 -35.839800 20.155500 -37.295200 24.328600 0.000019 0.000005 5.901560 3.284630 -61.000200 22.291600 -0.000001 0.000005 9.325510 5.587790 -10.637700 12.994500 -0.242716 -4.980390 88.788300 2.192130 -61.059600 -5.348130 -0.000001 -0.000004 -64.995800 21.465800 8.818320 -24.328900 0.000322 -0.000009 5.824620 9.305280 -32.252100 -22.291500 -0.000108 -0.000004 1.861730 5.568390 -9.605780 -2.192480 -6.469440 -0.000000 -163.906000 -2.054300 12.403300 39.081100 -0.000007 -0.000012 -0.036643 0.052616 34.855100 40.985400 -0.000006 -0.000013 -2.127530 4.181590 -71.400100 11.754300 -0.000000 0.000003 -0.080675 -0.393839 -32.930800 -2.192510 6.469440 -0.000001 -170.534000 21.976600 141.513000 -39.081100 -0.002282 -0.040193 0.064801 -0.085482 35.738400 -40.985400 0.000008 0.000006 5.939900 -10.014600 -49.669400 -11.754300 -0.000006 -0.000006 -0.023781 -0.187395 -24.237200
0.000000 0.000000 0.000000 0.000000 0.000000 -0.000000 -3.351700 84.783800 -23.413000 83.991700 11.624000 4.274020 15.735700 0.000005 -0.000001 59.467400 78.716900 -56.118600 8.984550 -0.406207 -0.000000 12.183900 -11.236700 7.916440 16.377300 -0.000001 -0.000001 6.989750 -3.502640 -1.610840 6.456720 -0.000001 -0.000000 0.643487 3.730680 -0.068813 12.994200 -0.242716 4.980390 -88.987300 -3.298840 -72.923100 5.348090 -0.000007 -0.000001 -37.907300 22.337000 -34.987600 24.328600 0.000019 0.000005 6.569300 3.728000 -60.550900 22.291600 -0.000001 0.000005 9.282960 5.590890 -10.812400 12.994500 -0.242716 -4.980390 88.872600 2.111300 -61.889200 -5.348130 -0.000001 -0.000004 -64.999100 21.385100 7.121600 -24.328900 0.000322 -0.000009 5.813180 9.845560 -30.774200 -22.291500 -0.000108 -0.000004 2.169980 5.566860 -9.528170 -2.192480 -6.469440 -0.000000 -161.862000 -1.212830 12.796400 39.081100 -0.000007 -0.000012 0.046369 -0.053488 40.920900 40.985400 -0.000006 -0.000013 -0.248021 2.702470 -62.571900 11.754300 -0.000000 0.000003 -0.147998 -0.550783 -39.858700 -2.192510 6.469440 -0.000001 -169.388000 23.316800 143.303000 -39.081100 -0.002282 -0.040193 0.130502 -0.137037 42.875200 -40.985400 0.000008 0.000006 9.408840 -8.557810 -55.034000 -11.754300 -0.000006 -0.000006 -0.014705 -0.135954 -22.119500
0.000000 0.000000 0.000000 0.000000 0.000000 -0.000000 -4.365810 84.923600 -18.259200 84.189800 11.847700 5.934950 15.735700 0.000005 -0.000001 61.207100 78.509500 -57.951600 8.984550 -0.406207 -0.000000 12.860600 -10.818700 7.749270 16.377300 -0.000001 -0.000001 7.251660 -3.848340 -1.362800 6.456720 -0.000001 -0.000000 1.049720 3.106710 -0.013560 12.994200 -0.242716 4.980390 -89.039300 -3.167130 -73.115900 5.348090 -0.000007 -0.000001 -40.024300 25.120000 -33.115600 24.328600 0.000019 0.000005 6.944890 4.288080 -58.458200 22.291600 -0.000001 0.000005 8.664730 5.591410 -10.841200 12.994500 -0.242716 -4.980390 88.712000 2.443680 -62.195900 -5.348130 -0.000001 -0.000004 -64.541000 22.429800 4.956480 -24.328900 0.000322 -0.000009 5.789330 10.137800 -29.947400 -22.291500 -0.000108 -0.000004 2.678760 5.565600 -9.465010 -2.192480 -6.469440 -0.000000 -161.510000 -0.071048 10.132800 39.081100 -0.000007 -0.000012 0.142399 -0.121566 49.511900 40.985400 -0.000006 -0.000013 0.620271 -0.491949 -51.925300 11.754300 -0.000000 0.000003 -0.056601 -0.320575 -29.803900 -2.192510 6.469440 -0.000001 -170.035000 25.226400 146.788000 -39.081100 -0.002282 -0.040193 0.168636 -0.153435 47.145600 -40.985400 0.000008 0.000006 9.632640 -8.167480 -61.273800 -11.754300 -0.000006 -0.000006 -0.009593 -0.100572 -20.670300
